<svg xmlns="http://www.w3.org/2000/svg" xmlns:xlink="http://www.w3.org/1999/xlink" viewBox="0 0 116.7 67.34"><defs><style>.cls-1{isolation:isolate;}.cls-2{fill:url(#linear-gradient);}.cls-3,.cls-5{mix-blend-mode:screen;}.cls-3{fill:url(#linear-gradient-2);}.cls-4{fill:url(#linear-gradient-3);}.cls-5{fill:url(#linear-gradient-4);}.cls-6{fill:url(#linear-gradient-5);}</style><linearGradient id="linear-gradient" x1="39.39" y1="67.34" x2="39.39" gradientUnits="userSpaceOnUse"><stop offset="0" stop-color="#ffa300"/><stop offset="1" stop-color="#c94343"/></linearGradient><linearGradient id="linear-gradient-2" x1="23.67" y1="50.42" x2="23.67" y2="16.59" gradientUnits="userSpaceOnUse"><stop offset="0"/><stop offset="0.49" stop-color="#fff"/><stop offset="1"/></linearGradient><linearGradient id="linear-gradient-3" x1="85.42" y1="67.34" x2="85.42" xlink:href="#linear-gradient"/><linearGradient id="linear-gradient-4" x1="69.7" y1="50.42" x2="69.7" y2="16.59" xlink:href="#linear-gradient-2"/><linearGradient id="linear-gradient-5" x1="54.29" y1="67.34" x2="54.29" gradientUnits="userSpaceOnUse"><stop offset="0" stop-color="#c94343"/><stop offset="1" stop-color="#ffa300"/></linearGradient></defs><g class="cls-1"><g id="Layer_2" data-name="Layer 2"><g id="OBJECTS"><path class="cls-2" d="M39.39,0H31.28l.19,1A31.33,31.33,0,0,0,8.12,31.28V67.34H24.73V31.28a14.67,14.67,0,1,1,29.33,0V67.34H70.67V31.28A31.31,31.31,0,0,0,39.39,0Z"/><path class="cls-3" d="M16.61,50.42c-.23-3.51-.33-7-.42-10.54-.07-1.76-.07-3.51-.1-5.27a45.68,45.68,0,0,1,.11-5.34,14.57,14.57,0,0,1,5.15-9.33A14.93,14.93,0,0,1,26,17.31a14.25,14.25,0,0,1,5.25-.7,15.44,15.44,0,0,0-9.37,4,14.54,14.54,0,0,0-4.6,8.84,49.09,49.09,0,0,0-.17,5.19c0,1.76,0,3.51-.1,5.27C17,43.39,16.84,46.91,16.61,50.42Z"/><path class="cls-4" d="M85.42,0H77.3l.19,1A31.33,31.33,0,0,0,54.14,31.28V67.34H70.76V31.28a14.66,14.66,0,1,1,29.32,0V67.34H116.7V31.28A31.31,31.31,0,0,0,85.42,0Z"/><path class="cls-5" d="M62.64,50.42c-.23-3.51-.34-7-.43-10.54-.06-1.76-.07-3.51-.1-5.27a45.72,45.72,0,0,1,.12-5.34,14.51,14.51,0,0,1,5.14-9.33,15,15,0,0,1,4.68-2.63,14.25,14.25,0,0,1,5.25-.7,15.41,15.41,0,0,0-9.36,4,14.55,14.55,0,0,0-4.61,8.84,49.14,49.14,0,0,0-.16,5.19c0,1.76,0,3.51-.1,5.27C63,43.39,62.87,46.91,62.64,50.42Z"/><path class="cls-6" d="M77.3,0a31.19,31.19,0,0,0-23,10.12A31.26,31.26,0,0,0,0,31.28V67.34H16.61V31.28a14.67,14.67,0,1,1,29.33,0V67.34h16.7V31.28a14.66,14.66,0,1,1,29.32,0V67.34h16.62V31.28A31.31,31.31,0,0,0,77.3,0Z"/></g></g></g></svg>